<?xml version="1.0" encoding="iso-8859-1"?>
<!-- Generator: Adobe Illustrator 19.0.0, SVG Export Plug-In . SVG Version: 6.00 Build 0)  -->
<svg version="1.1" id="Capa_1" xmlns="http://www.w3.org/2000/svg" xmlns:xlink="http://www.w3.org/1999/xlink" x="0px" y="0px"
	 viewBox="0 0 469.333 469.333" style="enable-background:new 0 0 469.333 469.333;" xml:space="preserve">
<g>
	<g>
		<g>
			<path d="M426.667,0h-384C19.146,0,0,19.135,0,42.667v384c0,23.531,19.146,42.667,42.667,42.667h384
				c23.521,0,42.667-19.135,42.667-42.667v-384C469.333,19.135,450.188,0,426.667,0z M298.667,448h-256
				c-11.771,0-21.333-9.573-21.333-21.333V213.333h277.333V448z M448,426.667c0,11.76-9.563,21.333-21.333,21.333H320V213.333h128
				V426.667z M448,192H21.333v-85.333H448V192z M448,85.333H21.333V42.667c0-11.76,9.563-21.333,21.333-21.333h384
				c11.771,0,21.333,9.573,21.333,21.333V85.333z"/>
			<circle cx="53.333" cy="53.333" r="10.667"/>
			<circle cx="96" cy="53.333" r="10.667"/>
			<circle cx="138.667" cy="53.333" r="10.667"/>
			<path d="M352,277.333h64c5.896,0,10.667-4.771,10.667-10.667S421.896,256,416,256h-64c-5.896,0-10.667,4.771-10.667,10.667
				S346.104,277.333,352,277.333z"/>
			<path d="M352,341.333h64c5.896,0,10.667-4.771,10.667-10.667c0-5.896-4.771-10.667-10.667-10.667h-64
				c-5.896,0-10.667,4.771-10.667,10.667C341.333,336.563,346.104,341.333,352,341.333z"/>
			<path d="M352,405.333h42.667c5.896,0,10.667-4.771,10.667-10.667c0-5.896-4.771-10.667-10.667-10.667H352
				c-5.896,0-10.667,4.771-10.667,10.667C341.333,400.563,346.104,405.333,352,405.333z"/>
		</g>
	</g>
</g>
<g>
</g>
<g>
</g>
<g>
</g>
<g>
</g>
<g>
</g>
<g>
</g>
<g>
</g>
<g>
</g>
<g>
</g>
<g>
</g>
<g>
</g>
<g>
</g>
<g>
</g>
<g>
</g>
<g>
</g>
</svg>
